<svg version="1.1" viewBox="0.0 0.0 655.8215223097113 296.7244094488189" fill="none" stroke="none" stroke-linecap="square" stroke-miterlimit="10" xmlns:xlink="http://www.w3.org/1999/xlink" xmlns="http://www.w3.org/2000/svg"><clipPath id="p.0"><path d="m0 0l655.82153 0l0 296.7244l-655.82153 0l0 -296.7244z" clip-rule="nonzero"/></clipPath><g clip-path="url(#p.0)"><path fill="#000000" fill-opacity="0.0" d="m0 0l655.82153 0l0 296.7244l-655.82153 0z" fill-rule="evenodd"/><path fill="#073763" d="m-9.0551184E-5 148.54068l0 0c0 -82.06864 66.529785 -148.59842 148.59842 -148.59842l0 0c39.410767 0 77.20735 15.655861 105.07497 43.52347c27.8676 27.867607 43.523453 65.6642 43.523453 105.07495l0 0c0 82.06865 -66.52977 148.59842 -148.59842 148.59842l0 0c-82.068634 0 -148.59842 -66.52977 -148.59842 -148.59842z" fill-rule="evenodd"/><path fill="#0b5394" d="m73.62249 148.53487l0 0c0 -61.8211 50.1159 -111.93701 111.937004 -111.93701l0 0c29.687546 0 58.15915 11.793331 79.15141 32.785595c20.99228 20.992256 32.785583 49.463875 32.785583 79.15141l0 0c0 61.821106 -50.11589 111.937 -111.937 111.937l0 0c-61.821106 0 -111.937004 -50.11589 -111.937004 -111.937z" fill-rule="evenodd"/><path fill="#3d85c6" d="m154.37903 148.55482l0 0c0 -39.48619 32.009888 -71.49606 71.49606 -71.49606l0 0c18.961945 0 37.147247 7.532593 50.55536 20.940712c13.408112 13.408112 20.940704 31.593407 20.940704 50.55535l0 0c0 39.486176 -32.009888 71.49606 -71.49606 71.49606l0 0c-39.486176 0 -71.49606 -32.009888 -71.49606 -71.49606z" fill-rule="evenodd"/><path fill="#000000" fill-opacity="0.0" d="m346.47113 59.800526l333.51178 0l0 161.48032l-333.51178 0z" fill-rule="evenodd"/><path fill="#073763" d="m370.8305 221.63365q-1.65625 0 -2.75 -1.09375q-1.09375 -1.078125 -1.09375 -2.75l0 -61.828125q0.265625 -10.109375 4.9375 -17.96875q4.671875 -7.875 12.734375 -12.484375q8.0625 -4.609375 18.046875 -4.609375q10.234375 0 18.359375 4.671875q8.140625 4.671875 12.8125 12.796875q4.671875 8.125 4.671875 18.375q0 10.109375 -4.671875 18.234375q-4.671875 8.125 -12.8125 12.796875q-8.125 4.671875 -18.359375 4.671875q-9.21875 0 -16.578125 -3.96875q-7.359375 -3.96875 -11.453125 -10.625l0 39.9375q0 1.671875 -1.03125 2.75q-1.015625 1.09375 -2.8125 1.09375zm31.875 -36.359375q8.0625 0 14.390625 -3.765625q6.34375 -3.78125 10.046875 -10.234375q3.71875 -6.46875 3.71875 -14.53125q0 -8.203125 -3.71875 -14.65625q-3.703125 -6.46875 -10.046875 -10.234375q-6.328125 -3.78125 -14.390625 -3.78125q-7.9375 0 -14.34375 3.78125q-6.390625 3.765625 -10.046875 10.234375q-3.640625 6.453125 -3.640625 14.65625q0 8.0625 3.640625 14.53125q3.65625 6.453125 10.046875 10.234375q6.40625 3.765625 14.34375 3.765625zm64.64264 6.40625q-1.671875 0 -2.765625 -1.078125q-1.078125 -1.09375 -1.078125 -2.765625l0 -66.296875q0 -8.703125 2.6875 -15.421875q2.6875 -6.71875 8.375 -10.5625q5.703125 -3.84375 14.53125 -3.84375q1.796875 0 2.8125 0.96875q1.03125 0.953125 1.03125 2.484375q0 1.546875 -1.03125 2.5q-1.015625 0.953125 -2.8125 0.953125q-6.515625 0 -10.421875 3.015625q-3.90625 3.0 -5.640625 8.1875q-1.71875 5.1875 -1.71875 11.71875l0 66.296875q0 1.671875 -1.09375 2.765625q-1.09375 1.078125 -2.875 1.078125zm-13.828125 -60.546875q-1.53125 0 -2.5 -0.953125q-0.953125 -0.96875 -0.953125 -2.5q0 -1.53125 0.953125 -2.484375q0.96875 -0.96875 2.5 -0.96875l34.6875 0q1.53125 0 2.484375 0.96875q0.96875 0.953125 0.96875 2.484375q0 1.53125 -0.96875 2.5q-0.953125 0.953125 -2.484375 0.953125l-34.6875 0zm82.048096 61.4375q-9.21875 0 -16.515625 -3.765625q-7.2968445 -3.78125 -11.5937195 -11.078125q-4.28125 -7.296875 -4.28125 -17.796875l0 -34.421875q0 -1.671875 1.09375 -2.75q1.09375 -1.09375 2.75 -1.09375q1.671875 0 2.75 1.09375q1.09375 1.078125 1.09375 2.75l0 34.421875q0 8.328125 3.2655945 13.90625q3.265625 5.5625 8.828125 8.3125q5.5625 2.75 12.609375 2.75q6.90625 0 12.40625 -2.6875q5.515625 -2.6875 8.703125 -7.234375q3.203125 -4.546875 3.203125 -10.3125l6.40625 0q-0.515625 7.9375 -4.734375 14.28125q-4.21875 6.328125 -10.953125 9.984375q-6.71875 3.640625 -15.03125 3.640625zm28.15625 -0.890625q-1.65625 0 -2.75 -1.078125q-1.09375 -1.09375 -1.09375 -2.765625l0 -62.328125q0 -1.796875 1.09375 -2.8125q1.09375 -1.03125 2.75 -1.03125q1.796875 0 2.8125 1.03125q1.03125 1.015625 1.03125 2.8125l0 62.328125q0 1.671875 -1.03125 2.765625q-1.015625 1.078125 -2.8125 1.078125zm87.42529 0q-1.65625 0 -2.75 -1.078125q-1.09375 -1.09375 -1.09375 -2.765625l0 -34.421875q0 -8.453125 -3.265625 -13.953125q-3.25 -5.515625 -8.828125 -8.265625q-5.5625 -2.75 -12.609375 -2.75q-6.90625 0 -12.421875 2.625q-5.5 2.625 -8.703125 7.234375q-3.1875 4.609375 -3.1875 10.359375l-6.40625 0q0.515625 -7.921875 4.734375 -14.25q4.234375 -6.34375 11.015625 -9.984375q6.78125 -3.65625 14.96875 -3.65625q9.21875 0 16.578125 3.78125q7.359375 3.765625 11.578125 11.0q4.234375 7.234375 4.234375 17.859375l0 34.421875q0 1.671875 -1.09375 2.765625q-1.078125 1.078125 -2.75 1.078125zm-56.703125 0q-1.65625 0 -2.75 -1.078125q-1.09375 -1.09375 -1.09375 -2.765625l0 -62.328125q0 -1.796875 1.09375 -2.8125q1.09375 -1.03125 2.75 -1.03125q1.796875 0 2.8125 1.03125q1.03125 1.015625 1.03125 2.8125l0 62.328125q0 1.671875 -1.03125 2.765625q-1.015625 1.078125 -2.8125 1.078125z" fill-rule="nonzero"/></g></svg>