<svg version="1.1" viewBox="0.0 0.0 1280.0 640.0" fill="none" stroke="none" stroke-linecap="square" stroke-miterlimit="10" xmlns:xlink="http://www.w3.org/1999/xlink" xmlns="http://www.w3.org/2000/svg"><clipPath id="p.0"><path d="m0 0l1280.0 0l0 640.0l-1280.0 0l0 -640.0z" clip-rule="nonzero"/></clipPath><g clip-path="url(#p.0)"><path fill="#000000" fill-opacity="0.0" d="m0 0l1280.0 0l0 640.0l-1280.0 0z" fill-rule="evenodd"/><path fill="#073763" d="m62.496037 320.0l0 0c0 -159.05801 128.942 -288.0 288.0 -288.0l0 0c76.382355 0 149.63629 30.34277 203.64673 84.35325c54.010498 54.010475 84.35327 127.2644 84.35327 203.64676l0 0c0 159.05801 -128.94199 288.0 -288.0 288.0l0 0c-159.058 0 -288.0 -128.94199 -288.0 -288.0z" fill-rule="evenodd"/><path fill="#0b5394" d="m282.33698 319.99902l0 0c0 -98.350174 79.728546 -178.07874 178.07874 -178.07874l0 0c47.2294 0 92.524414 18.76181 125.920654 52.15805c33.39624 33.39624 52.15808 78.691284 52.15808 125.920685l0 0c0 98.35019 -79.72858 178.07874 -178.07874 178.07874l0 0c-98.35019 0 -178.07874 -79.728546 -178.07874 -178.07874z" fill-rule="evenodd"/><path fill="#3d85c6" d="m418.65268 320.00003l0 0c0 -60.707855 49.21341 -109.921265 109.921234 -109.921265l0 0c29.152954 0 57.111816 11.580948 77.726074 32.19519c20.614258 20.614227 32.19519 48.57315 32.19519 77.726074l0 0c0 60.707825 -49.21344 109.921265 -109.921265 109.921265l0 0c-60.707825 0 -109.921234 -49.21344 -109.921234 -109.921265z" fill-rule="evenodd"/><path fill="#000000" fill-opacity="0.0" d="m701.0315 185.3622l516.4724 0l0 279.27557l-516.4724 0z" fill-rule="evenodd"/><path fill="#073763" d="m733.07837 423.60406q-2.5 0 -4.140625 -1.640625q-1.625 -1.625 -1.625 -4.109375l0 -92.734375q0.375 -15.171875 7.390625 -26.984375q7.015625 -11.8125 19.109375 -18.71875q12.09375 -6.90625 27.0625 -6.90625q15.359375 0 27.546875 7.015625q12.203125 7.0 19.203125 19.1875q7.015625 12.1875 7.015625 27.546875q0 15.171875 -7.015625 27.375q-7.0 12.1875 -19.203125 19.203125q-12.1875 7.0 -27.546875 7.0q-13.8125 0 -24.859375 -5.953125q-11.046875 -5.953125 -17.1875 -15.9375l0 59.90625q0 2.484375 -1.53125 4.109375q-1.53125 1.640625 -4.21875 1.640625zm47.796875 -54.515625q12.09375 0 21.59375 -5.65625q9.515625 -5.671875 15.078125 -15.359375q5.578125 -9.703125 5.578125 -21.8125q0 -12.28125 -5.578125 -21.96875q-5.5625 -9.703125 -15.078125 -15.359375q-9.5 -5.671875 -21.59375 -5.671875q-11.90625 0 -21.5 5.671875q-9.59375 5.65625 -15.078125 15.359375q-5.46875 9.6875 -5.46875 21.96875q0 12.109375 5.46875 21.8125q5.484375 9.6875 15.078125 15.359375q9.59375 5.65625 21.5 5.65625zm96.97168 9.59375q-2.5 0 -4.140625 -1.625q-1.625 -1.640625 -1.625 -4.140625l0 -99.453125q0 -13.046875 4.03125 -23.125q4.03125 -10.09375 12.578125 -15.84375q8.546875 -5.765625 21.78125 -5.765625q2.703125 0 4.234375 1.4375q1.53125 1.4375 1.53125 3.75q0 2.296875 -1.53125 3.75q-1.53125 1.4375 -4.234375 1.4375q-9.78125 0 -15.640625 4.515625q-5.859375 4.5 -8.453125 12.28125q-2.59375 7.765625 -2.59375 17.5625l0 99.453125q0 2.5 -1.625 4.140625q-1.625 1.625 -4.3125 1.625zm-20.75 -90.8125q-2.296875 0 -3.734375 -1.4375q-1.4375 -1.453125 -1.4375 -3.75q0 -2.296875 1.4375 -3.734375q1.4375 -1.453125 3.734375 -1.453125l52.03125 0q2.3125 0 3.75 1.453125q1.4375 1.4375 1.4375 3.734375q0 2.296875 -1.4375 3.75q-1.4375 1.4375 -3.75 1.4375l-52.03125 0zm123.08002 92.15625q-13.828125 0 -24.78125 -5.65625q-10.9375 -5.671875 -17.375 -16.609375q-6.421875 -10.953125 -6.421875 -26.6875l0 -51.65625q0 -2.5 1.625 -4.125q1.640625 -1.640625 4.140625 -1.640625q2.484375 0 4.109375 1.640625q1.640625 1.625 1.640625 4.125l0 51.65625q0 12.46875 4.890625 20.828125q4.90625 8.34375 13.25 12.484375q8.359375 4.125 18.921875 4.125q10.359375 0 18.609375 -4.03125q8.265625 -4.03125 13.0625 -10.84375q4.8125 -6.828125 4.8125 -15.46875l9.593689 0q-0.765625 11.90625 -7.109314 21.421875q-6.328125 9.5 -16.40625 14.96875q-10.078125 5.46875 -22.5625 5.46875zm42.234375 -1.34375q-2.484375 0 -4.125 -1.625q-1.625 -1.640625 -1.625 -4.140625l0 -93.5q0 -2.6875 1.625 -4.21875q1.640625 -1.546875 4.125 -1.546875q2.687439 0 4.218689 1.546875q1.546875 1.53125 1.546875 4.21875l0 93.5q0 2.5 -1.546875 4.140625q-1.53125 1.625 -4.218689 1.625zm131.13776 0q-2.5 0 -4.125 -1.625q-1.625 -1.640625 -1.625 -4.140625l0 -51.640625q0 -12.671875 -4.90625 -20.921875q-4.890625 -8.265625 -13.25 -12.390625q-8.34375 -4.125 -18.90625 -4.125q-10.375 0 -18.625 3.9375q-8.25 3.9375 -13.0625 10.84375q-4.796875 6.90625 -4.796875 15.546875l-9.59375 0q0.765625 -11.90625 7.09375 -21.40625q6.34375 -9.5 16.515625 -14.96875q10.171875 -5.484375 22.46875 -5.484375q13.828125 0 24.859375 5.671875q11.046875 5.65625 17.375 16.515625q6.34375 10.84375 6.34375 26.78125l0 51.640625q0 2.5 -1.640625 4.140625q-1.625 1.625 -4.125 1.625zm-85.046875 0q-2.5 0 -4.140625 -1.625q-1.625 -1.640625 -1.625 -4.140625l0 -93.5q0 -2.6875 1.625 -4.21875q1.640625 -1.546875 4.140625 -1.546875q2.6875 0 4.21875 1.546875q1.53125 1.53125 1.53125 4.21875l0 93.5q0 2.5 -1.53125 4.140625q-1.53125 1.625 -4.21875 1.625z" fill-rule="nonzero"/></g></svg>
