<svg version="1.1" viewBox="0.0 0.0 160.0 160.0" fill="none" stroke="none" stroke-linecap="square" stroke-miterlimit="10" xmlns:xlink="http://www.w3.org/1999/xlink" xmlns="http://www.w3.org/2000/svg"><clipPath id="p.0"><path d="m0 0l160.0 0l0 160.0l-160.0 0l0 -160.0z" clip-rule="nonzero"/></clipPath><g clip-path="url(#p.0)"><path fill="#000000" fill-opacity="0.0" d="m0 0l160.0 0l0 160.0l-160.0 0z" fill-rule="evenodd"/><path fill="#000000" fill-opacity="0.0" d="m4.5826774 80.0l0 0c0 -41.651836 33.765488 -75.41732 75.41732 -75.41732l0 0c20.001915 0 39.18461 7.9457307 53.328094 22.089222c14.143494 14.143492 22.089233 33.32618 22.089233 53.328102l0 0c0 41.65184 -33.765488 75.41733 -75.41733 75.41733l0 0c-41.651836 0 -75.41732 -33.765488 -75.41732 -75.41733z" fill-rule="evenodd"/><path stroke="#ffffff" stroke-width="8.0" stroke-linejoin="round" stroke-linecap="butt" d="m4.5826774 80.0l0 0c0 -41.651836 33.765488 -75.41732 75.41732 -75.41732l0 0c20.001915 0 39.18461 7.9457307 53.328094 22.089222c14.143494 14.143492 22.089233 33.32618 22.089233 53.328102l0 0c0 41.65184 -33.765488 75.41733 -75.41733 75.41733l0 0c-41.651836 0 -75.41732 -33.765488 -75.41732 -75.41733z" fill-rule="evenodd"/><path fill="#000000" fill-opacity="0.0" d="m62.210564 79.99505l0 0c0 -25.735603 20.862823 -46.598427 46.598427 -46.598427l0 0c12.358673 0 24.211166 4.909462 32.950058 13.648361c8.738907 8.738899 13.648361 20.591393 13.648361 32.950066l0 0c0 25.735596 -20.862823 46.59842 -46.59842 46.59842l0 0c-25.735603 0 -46.598427 -20.862823 -46.598427 -46.59842z" fill-rule="evenodd"/><path stroke="#ffffff" stroke-width="8.0" stroke-linejoin="round" stroke-linecap="butt" d="m62.210564 79.99505l0 0c0 -25.735603 20.862823 -46.598427 46.598427 -46.598427l0 0c12.358673 0 24.211166 4.909462 32.950058 13.648361c8.738907 8.738899 13.648361 20.591393 13.648361 32.950066l0 0c0 25.735596 -20.862823 46.59842 -46.59842 46.59842l0 0c-25.735603 0 -46.598427 -20.862823 -46.598427 -46.59842z" fill-rule="evenodd"/><path fill="#000000" fill-opacity="0.0" d="m98.40242 79.99648l0 0c0 -15.742287 12.76165 -28.503933 28.503937 -28.503933l0 0c7.559723 0 14.809799 3.003086 20.155334 8.34861c5.34552 5.345524 8.348602 12.595615 8.348602 20.155323l0 0c0 15.742294 -12.761642 28.503944 -28.503937 28.503944l0 0c-15.742287 0 -28.503937 -12.76165 -28.503937 -28.503944z" fill-rule="evenodd"/><path stroke="#ffffff" stroke-width="8.0" stroke-linejoin="round" stroke-linecap="butt" d="m98.40242 79.99648l0 0c0 -15.742287 12.76165 -28.503933 28.503937 -28.503933l0 0c7.559723 0 14.809799 3.003086 20.155334 8.34861c5.34552 5.345524 8.348602 12.595615 8.348602 20.155323l0 0c0 15.742294 -12.761642 28.503944 -28.503937 28.503944l0 0c-15.742287 0 -28.503937 -12.76165 -28.503937 -28.503944z" fill-rule="evenodd"/></g></svg>
